<svg width="385" height="139" viewBox="0 0 385 139" fill="none" xmlns="http://www.w3.org/2000/svg">
<path d="M150.268 115L181.039 34.3253H192.91L223.566 115H212.848L204.32 93.2178H169.169L160.64 115H150.268ZM172.165 84.1131H201.323L186.687 45.274L172.165 84.1131ZM227.854 34.3253H237.305V115H227.854V34.3253ZM255.898 35.2473C257.051 36.3998 257.627 37.8981 257.627 39.6268C257.627 41.4708 257.051 42.8538 255.898 44.0063C254.746 45.1588 253.248 45.735 251.519 45.735C249.675 45.735 248.292 45.1588 247.139 44.0063C245.987 42.8538 245.411 41.4708 245.411 39.6268C245.411 37.8981 245.987 36.3998 247.139 35.2473C248.292 34.0948 249.675 33.5186 251.519 33.5186C253.248 33.5186 254.746 34.0948 255.898 35.2473ZM246.794 56.2227H256.244V115H246.794V56.2227ZM267.116 69.8222C269.421 65.3275 272.764 61.87 277.028 59.3345C281.177 56.799 286.017 55.5313 291.549 55.5313C296.851 55.5313 301.691 56.6837 305.84 58.8735C309.989 61.1785 313.216 64.4055 315.636 68.5544C317.941 72.8187 319.209 77.7744 319.44 83.4216C319.44 84.3436 319.324 85.6114 319.209 87.4554H273.57V88.2621C273.686 94.0246 275.414 98.6346 278.872 102.092C282.214 105.55 286.594 107.278 292.125 107.278C296.274 107.278 299.847 106.241 302.844 104.167C305.84 102.092 307.799 99.0956 308.837 95.2923H318.402C317.25 101.285 314.369 106.241 309.759 110.044C305.149 113.848 299.501 115.691 292.817 115.691C286.939 115.691 281.868 114.539 277.489 112.004C273.109 109.468 269.652 106.011 267.232 101.401C264.811 96.7906 263.659 91.6043 263.659 85.6114C263.659 79.6184 264.811 74.4322 267.116 69.8222ZM309.643 79.6184C309.182 74.6627 307.223 70.7442 303.996 67.9782C300.769 65.2122 296.62 63.8292 291.664 63.8292C287.17 63.8292 283.251 65.3275 279.909 68.2087C276.452 71.2052 274.608 75.0084 274.147 79.6184H309.643ZM372.751 61.9852C377.13 66.3647 379.32 73.0492 379.32 82.2691V115H369.869V82.8454C369.869 76.8524 368.486 72.2424 365.72 69.0154C362.954 65.7885 359.036 64.175 353.965 64.175C348.433 64.175 344.053 66.1342 340.942 69.9374C337.715 73.8559 336.217 79.0422 336.217 85.6114V115H326.766V56.2227H334.949L336.217 64.175C340.596 58.4125 347.05 55.5313 355.578 55.5313C362.724 55.5313 368.371 57.721 372.751 61.9852Z" fill="#1a1a1a"/>
<path d="M125.953 60.2284L105.004 34.7072C104.288 33.8358 103.163 33.4131 102.05 33.5971L75.1723 38.0377C74.0588 38.2217 72.9343 37.799 72.2184 36.9276L54.9312 15.8678C54.2153 14.9963 53.0909 14.5736 51.9774 14.7576L19.4021 20.1396C18.2886 20.3236 17.3598 21.0855 16.9622 22.1409L5.33576 53.0441C4.9382 54.0996 5.13456 55.2881 5.85048 56.1595L23.133 77.2161C23.8489 78.0875 24.0453 79.276 23.6477 80.3315L14.0566 105.828C13.6591 106.883 13.8554 108.072 14.5713 108.943L35.5202 134.465C36.2361 135.336 37.3606 135.759 38.474 135.575L71.0494 130.193C72.1628 130.009 73.0916 129.247 73.4892 128.191L83.0803 102.695C83.4778 101.639 84.4066 100.878 85.5201 100.694L112.398 96.2529C113.511 96.0689 114.44 95.307 114.837 94.2516L126.464 63.3484C126.862 62.293 126.665 61.1045 125.949 60.233L125.953 60.2284ZM16.7312 51.1614L24.2909 31.0709C24.6885 30.0154 25.6172 29.2535 26.7307 29.0696L47.9066 25.5709C49.0201 25.387 50.1446 25.8096 50.8605 26.6811L64.4807 43.2723C65.1966 44.1438 65.393 45.3323 64.9954 46.3877L57.4397 66.4776C57.0421 67.533 56.1133 68.2949 54.9999 68.4789L33.8239 71.9775C32.7104 72.1615 31.586 71.7388 30.8701 70.8674L17.2499 54.2761C16.5339 53.4047 16.3376 52.2162 16.7351 51.1608L16.7312 51.1614ZM73.7202 99.1709L66.1605 119.261C65.763 120.317 64.8349 121.083 63.7214 121.267L42.5454 124.765C41.432 124.949 40.3075 124.527 39.5916 123.655L25.9714 107.064C25.2555 106.192 25.0591 105.004 25.4567 103.949L33.0164 83.858C33.4139 82.8026 34.3427 82.0407 35.4562 81.8567L56.6321 78.3581C57.7456 78.1741 58.87 78.5968 59.586 79.4682L73.2062 96.0595C73.9221 96.9309 74.1184 98.1194 73.7209 99.1749L73.7202 99.1709ZM115.068 65.2272L107.508 85.3177C107.111 86.3731 106.182 87.135 105.068 87.319L83.8925 90.8176C82.779 91.0016 81.6545 90.579 80.9386 89.7075L67.3184 73.1163C66.6025 72.2448 66.4061 71.0563 66.8037 70.0009L74.3634 49.9103C74.7609 48.8549 75.6897 48.093 76.8032 47.909L97.9791 44.4104C99.0926 44.2264 100.217 44.6491 100.933 45.5205L114.553 62.1118C115.269 62.9832 115.465 64.1717 115.068 65.2272Z" fill="#5AFF75"/>
</svg>
