<svg width="122" height="121" viewBox="0 0 122 121" fill="none" xmlns="http://www.w3.org/2000/svg">
<path d="M120.819 45.5131L99.8704 19.9919C99.1545 19.1204 98.03 18.6978 96.9166 18.8817L70.039 23.3224C68.9255 23.5064 67.801 23.0837 67.0851 22.2123L49.7979 1.15242C49.082 0.280963 47.9576 -0.1417 46.8441 0.0422683L14.2688 5.42431C13.1553 5.60828 12.2265 6.37017 11.8289 7.42559L0.202461 38.3288C-0.195103 39.3842 0.00126013 40.5727 0.71718 41.4442L17.9997 62.5007C18.7156 63.3722 18.912 64.5607 18.5144 65.6161L8.92332 91.1127C8.52576 92.1681 8.72212 93.3566 9.43804 94.2281L30.3869 119.749C31.1028 120.621 32.2273 121.043 33.3407 120.859L65.9161 115.477C67.0295 115.293 67.9583 114.531 68.3559 113.476L77.947 87.9795C78.3445 86.9241 79.2733 86.1622 80.3868 85.9782L107.264 81.5376C108.378 81.3536 109.307 80.5917 109.704 79.5363L121.331 48.633C121.728 47.5776 121.532 46.3891 120.816 45.5177L120.819 45.5131ZM11.5979 36.4461L19.1576 16.3555C19.5552 15.3001 20.4839 14.5382 21.5974 14.3542L42.7733 10.8556C43.8868 10.6716 45.0113 11.0943 45.7272 11.9657L59.3474 28.557C60.0633 29.4284 60.2597 30.6169 59.8621 31.6724L52.3064 51.7623C51.9088 52.8177 50.98 53.5796 49.8666 53.7635L28.6906 57.2622C27.5771 57.4462 26.4527 57.0235 25.7368 56.152L12.1166 39.5608C11.4006 38.6894 11.2043 37.5008 11.6018 36.4454L11.5979 36.4461ZM68.5869 84.4556L61.0272 104.546C60.6297 105.602 59.7016 106.367 58.5881 106.551L37.4121 110.05C36.2987 110.234 35.1742 109.811 34.4583 108.94L20.8381 92.3486C20.1222 91.4772 19.9258 90.2887 20.3234 89.2332L27.8831 69.1427C28.2806 68.0873 29.2094 67.3254 30.3229 67.1414L51.4988 63.6428C52.6123 63.4588 53.7367 63.8815 54.4527 64.7529L68.0729 81.3441C68.7888 82.2156 68.9851 83.4041 68.5876 84.4595L68.5869 84.4556ZM109.935 50.5118L102.375 70.6024C101.977 71.6578 101.049 72.4197 99.9351 72.6037L78.7592 76.1023C77.6457 76.2863 76.5212 75.8636 75.8053 74.9922L62.1851 58.4009C61.4692 57.5295 61.2728 56.341 61.6704 55.2855L69.2301 35.195C69.6276 34.1396 70.5564 33.3777 71.6699 33.1937L92.8458 29.6951C93.9593 29.5111 95.0838 29.9338 95.7997 30.8052L109.42 47.3964C110.136 48.2679 110.332 49.4564 109.935 50.5118Z" fill="#5AFF75"/>
</svg>
